<svg width="35" height="35" viewBox="0 0 35 35" fill="none" xmlns="http://www.w3.org/2000/svg">
<path d="M25.2985 26.6036L25.6521 26.9571L26.0057 26.6036L28.0619 24.5473L28.4151 24.1941L28.0623 23.8406L21.7355 17.5L28.0623 11.1594L28.4151 10.8059L28.0619 10.4527L26.0057 8.39645L25.6521 8.04289L25.2985 8.39645L16.5485 17.1464L16.195 17.5L16.5485 17.8536L25.2985 26.6036Z" fill="#B9B9B9" stroke="#B9B9B9"/>
<path d="M15.6881 26.6036L16.0417 26.9571L16.3952 26.6036L18.4515 24.5473L18.8047 24.1941L18.4519 23.8406L12.1251 17.5L18.4519 11.1594L18.8047 10.8059L18.4515 10.4527L16.3952 8.39645L16.0417 8.04289L15.6881 8.39645L6.93813 17.1464L6.58458 17.5L6.93813 17.8536L15.6881 26.6036Z" fill="#B9B9B9" stroke="#B9B9B9"/>
</svg>
