<svg width="38" height="35" viewBox="0 0 38 35" fill="none" xmlns="http://www.w3.org/2000/svg">
<g clip-path="url(#clip0_1_1634)">
<path d="M28.9615 30.8C28.9615 30.4208 28.8207 30.0927 28.5391 29.8156C28.2574 29.5385 27.9239 29.4 27.5385 29.4C27.153 29.4 26.8195 29.5385 26.5379 29.8156C26.2562 30.0927 26.1154 30.4208 26.1154 30.8C26.1154 31.1792 26.2562 31.5073 26.5379 31.7844C26.8195 32.0615 27.153 32.2 27.5385 32.2C27.9239 32.2 28.2574 32.0615 28.5391 31.7844C28.8207 31.5073 28.9615 31.1792 28.9615 30.8ZM34.6538 30.8C34.6538 30.4208 34.513 30.0927 34.2314 29.8156C33.9497 29.5385 33.6162 29.4 33.2308 29.4C32.8453 29.4 32.5118 29.5385 32.2302 29.8156C31.9485 30.0927 31.8077 30.4208 31.8077 30.8C31.8077 31.1792 31.9485 31.5073 32.2302 31.7844C32.5118 32.0615 32.8453 32.2 33.2308 32.2C33.6162 32.2 33.9497 32.0615 34.2314 31.7844C34.513 31.5073 34.6538 31.1792 34.6538 30.8ZM37.5 25.9V32.9C37.5 33.4833 37.2925 33.9792 36.8774 34.3875C36.4623 34.7958 35.9583 35 35.3654 35H2.63462C2.04167 35 1.53766 34.7958 1.1226 34.3875C0.707532 33.9792 0.5 33.4833 0.5 32.9V25.9C0.5 25.3167 0.707532 24.8208 1.1226 24.4125C1.53766 24.0042 2.04167 23.8 2.63462 23.8H12.1292C12.4405 24.6167 12.963 25.2875 13.6968 25.8125C14.4306 26.3375 15.2496 26.6 16.1538 26.6H21.8462C22.7504 26.6 23.5694 26.3375 24.3032 25.8125C25.037 25.2875 25.5595 24.6167 25.8708 23.8H35.3654C35.9583 23.8 36.4623 24.0042 36.8774 24.4125C37.2925 24.8208 37.5 25.3167 37.5 25.9ZM30.2734 11.725C30.0214 12.3083 29.5841 12.6 28.9615 12.6H23.2692V22.4C23.2692 22.7792 23.1284 23.1073 22.8468 23.3844C22.5651 23.6615 22.2316 23.8 21.8462 23.8H16.1538C15.7684 23.8 15.4349 23.6615 15.1532 23.3844C14.8716 23.1073 14.7308 22.7792 14.7308 22.4V12.6H9.03846C8.41586 12.6 7.97856 12.3083 7.72656 11.725C7.47456 11.1562 7.57832 10.6531 8.03786 10.2156L17.9994 0.415625C18.2662 0.138542 18.5998 0 19 0C19.4002 0 19.7338 0.138542 20.0006 0.415625L29.9621 10.2156C30.4217 10.6531 30.5254 11.1562 30.2734 11.725Z" fill="black"/>
</g>
<defs>
<clipPath id="clip0_1_1634">
<rect width="37" height="35" fill="white" transform="translate(0.5)"/>
</clipPath>
</defs>
</svg>
